<svg xmlns="http://www.w3.org/2000/svg" xmlns:svg="http://www.w3.org/2000/svg" id="svg2" width="756.37" height="756.37" version="1.1"><metadata id="metadata7"/><g id="north" transform="matrix(0.58455189,0,0,0.58455189,197.9011,-204.85166)" style="fill:#390"><rect id="rect2816" width="228.571" height="228.571" x="540.953" y="128.811" transform="matrix(0.70710678,0.70710678,-0.70710678,0.70710678,0,0)" style="fill:#390;fill-opacity:1;fill-rule:nonzero;stroke:none"/><path id="path2820" d="m 411.42857,400.93362 a 117.14286,117.14286 0 1 1 -234.28572,0 117.14286,117.14286 0 1 1 234.28572,0 z" transform="translate(-81.952479,151.13084)" style="fill:#390;fill-opacity:1;fill-rule:nonzero;stroke:none"/><path id="path2822" d="m 411.42857,400.93362 a 117.14286,117.14286 0 1 1 -234.28572,0 117.14286,117.14286 0 1 1 234.28572,0 z" transform="translate(77.738331,149.63069)" style="fill:#390;fill-opacity:1;fill-rule:nonzero;stroke:none"/></g><g id="south" transform="matrix(0.58455189,0,0,-0.58455189,197.9011,744.00042)" style="fill:#390"><rect id="rect2841" width="228.571" height="228.571" x="540.953" y="128.811" transform="matrix(0.70710678,0.70710678,-0.70710678,0.70710678,0,0)" style="fill:#390;fill-opacity:1;fill-rule:nonzero;stroke:none"/><path id="path2843" d="m 411.42857,400.93362 a 117.14286,117.14286 0 1 1 -234.28572,0 117.14286,117.14286 0 1 1 234.28572,0 z" transform="translate(-81.952479,151.13084)" style="fill:#390;fill-opacity:1;fill-rule:nonzero;stroke:none"/><path id="path2845" d="m 411.42857,400.93362 a 117.14286,117.14286 0 1 1 -234.28572,0 117.14286,117.14286 0 1 1 234.28572,0 z" transform="translate(77.738331,149.63069)" style="fill:#390;fill-opacity:1;fill-rule:nonzero;stroke:none"/></g><g id="east" transform="matrix(0,0.58455189,-0.58455189,0,843.12069,98.78081)" style="fill:#390"><rect id="rect2861" width="228.571" height="228.571" x="540.953" y="128.811" transform="matrix(0.70710678,0.70710678,-0.70710678,0.70710678,0,0)" style="fill:#390;fill-opacity:1;fill-rule:nonzero;stroke:none"/><path id="path2863" d="m 411.42857,400.93362 a 117.14286,117.14286 0 1 1 -234.28572,0 117.14286,117.14286 0 1 1 234.28572,0 z" transform="translate(-81.952479,151.13084)" style="fill:#390;fill-opacity:1;fill-rule:nonzero;stroke:none"/><path id="path2865" d="m 411.42857,400.93362 a 117.14286,117.14286 0 1 1 -234.28572,0 117.14286,117.14286 0 1 1 234.28572,0 z" transform="translate(77.738331,149.63069)" style="fill:#390;fill-opacity:1;fill-rule:nonzero;stroke:none"/></g><g id="west" transform="matrix(0,0.58455189,0.58455189,0,-105.73137,98.78081)" style="fill:#390"><rect id="rect2869" width="228.571" height="228.571" x="540.953" y="128.811" transform="matrix(0.70710678,0.70710678,-0.70710678,0.70710678,0,0)" style="fill:#390;fill-opacity:1;fill-rule:nonzero;stroke:none"/><path id="path2871" d="m 411.42857,400.93362 a 117.14286,117.14286 0 1 1 -234.28572,0 117.14286,117.14286 0 1 1 234.28572,0 z" transform="translate(-81.952479,151.13084)" style="fill:#390;fill-opacity:1;fill-rule:nonzero;stroke:none"/><path id="path2873" d="m 411.42857,400.93362 a 117.14286,117.14286 0 1 1 -234.28572,0 117.14286,117.14286 0 1 1 234.28572,0 z" transform="translate(77.738331,149.63069)" style="fill:#390;fill-opacity:1;fill-rule:nonzero;stroke:none"/></g></svg>